# xmcd
#
# Track frame offsets: 
#        150
#        14196
#        29573
#        44766
#        59688
#        74385
#        83633
#        100836
#        114765
#        128464
#        138074
#        155162
#
# Disc length: 2244 seconds
#
# Revision: 0
# Processed by: cddbd v1.5.1PL2 Copyright (c) Steve Scherf et al.
# Submitted via: ExactAudioCopy v0.95b4
#
DISCID=a508c20c
DTITLE=Burnett Family Bluegrass - Bend The Wind
DYEAR=2005
DGENRE=Bluegrass
TTITLE0=Train Train
TTITLE1=Early Morning Rain
TTITLE2=My Sweet Love Ain't Around
TTITLE3=Lady Muleskinner Blues
TTITLE4=Bend The Wind
TTITLE5=He Taught Me How To Yodel
TTITLE6=Slipstream
TTITLE7=Another Night
TTITLE8=Walk Softly On This Heart Of Mine
TTITLE9=Clear The Tracks
TTITLE10=Freeborn Man
TTITLE11=Shadow Ridge
EXTD=
EXTT0=
EXTT1=
EXTT2=
EXTT3=
EXTT4=
EXTT5=
EXTT6=
EXTT7=
EXTT8=
EXTT9=
EXTT10=
EXTT11=
PLAYORDER=
